<svg xmlns="http://www.w3.org/2000/svg" width="150" height="16" viewBox="0 0 150 16">
    <g data-name="그룹 1305">
        <g data-name="그룹 1304">
            <g data-name="그룹 1303">
                <g data-name="그룹 1302">
                    <g data-name="그룹 1301">
                        <path data-name="사각형 329" style="fill:#fff" d="M0 0h2.221v12.161H0z" transform="translate(146.625 1.304)"/>
                    </g>
                </g>
            </g>
        </g>
        <path data-name="패스 4882" d="M1090.193 522.114h-3.086a4.186 4.186 0 0 0-4.176 4.2v8.056h2.136v-4.152h7.165v4.152h2.136v-8.06a4.185 4.185 0 0 0-4.175-4.196zm2.039 6.172h-7.165v-2.038a2.183 2.183 0 0 1 2.178-2.189h2.808a2.183 2.183 0 0 1 2.178 2.189z" transform="translate(-963.719 -520.901)" style="fill:#fff"/>
        <path data-name="패스 4883" d="M1128.775 522.364h-7.089v12.161h2.124v-4.152h4.965a4 4 0 0 0 0-8.009zm-.188 6.093h-4.777v-4.178h4.777a2.089 2.089 0 0 1 0 4.178z" transform="translate(-988.374 -521.06)" style="fill:#fff"/>
    </g>
    <g data-name="그룹 1306">
        <path data-name="패스 4884" d="M755.62 524.34h5.154a3.645 3.645 0 0 0-.4 1.672v8.513h2.239v-8.6a1.577 1.577 0 0 1 1.573-1.581h3.177v-1.976H755.62z" transform="translate(-755.62 -521.06)" style="fill:#fff"/>
        <path data-name="패스 4885" d="M842.551 522.114h-3.086a4.186 4.186 0 0 0-4.175 4.2v8.057h2.136v-4.153h7.165v4.153h2.136v-8.061a4.186 4.186 0 0 0-4.176-4.196zm2.039 6.172h-7.165v-2.038a2.183 2.183 0 0 1 2.178-2.189h2.808a2.184 2.184 0 0 1 2.179 2.189z" transform="translate(-806.267 -520.901)" style="fill:#fff"/>
        <path data-name="패스 4886" d="M881.132 522.364h-7.089v12.161h2.124v-4.153h4.965a4 4 0 0 0 0-8.009zm-.188 6.093h-4.777v-4.178h4.777a2.089 2.089 0 0 1 0 4.178z" transform="translate(-830.904 -521.06)" style="fill:#fff"/>
        <path data-name="패스 4887" d="M801.477 521.865a3.789 3.789 0 0 1-5.461 0 3.814 3.814 0 0 0-3.8 3.823v8.52h2.148v-8.684a1.656 1.656 0 1 1 3.313 0v8.684h2.148v-8.684a1.656 1.656 0 1 1 3.313 0v8.684h2.148v-8.52a3.814 3.814 0 0 0-3.809-3.823z" transform="translate(-778.898 -520.742)" style="fill:#fff"/>
        <path data-name="패스 4888" d="M1001.823 534.905h-1.667v5.06h-1.806v-5.06h-1.666v5.06h-2.838v1.389h12.9v-1.389h-4.923z" transform="translate(-907.044 -528.997)" style="fill:#fff"/>
        <path data-name="패스 4889" d="M1006.022 530.4h1.667V524a1.234 1.234 0 0 0-1.234-1.234h-9.1v1.448h8.664z" transform="translate(-909.278 -521.319)" style="fill:#fff"/>
        <path data-name="패스 4890" d="M956.536 537.859h5.571v.743c-1.746.3-3 1.46-3 2.911 0 1.659 1.584 2.972 3.812 2.972s3.812-1.314 3.812-2.972c0-1.445-1.156-2.572-2.985-2.907v-.746h5.554v-1.373h-12.764zm8.546 3.642c0 .912-.917 1.621-2.166 1.621s-2.166-.708-2.166-1.621.917-1.621 2.166-1.621 2.166.709 2.166 1.62z" transform="translate(-883.344 -529.985)" style="fill:#fff"/>
        <path data-name="패스 4891" d="M1045.645 528.555h-5.564v-1.039h4.4v-1.364h-8.668v-.978h8.422v-1.3h-8.422v-.978h8.545v-1.364h-9.069a1.113 1.113 0 0 0-1.111 1.116v3.752a1.113 1.113 0 0 0 1.111 1.116h3.162v1.039h-5.564v1.367h3.445a2.6 2.6 0 0 0-.953 2.07c0 1.574 1.759 3.035 3.881 3.035s3.881-1.471 3.881-3.035a2.6 2.6 0 0 0-.953-2.07h3.461zm-6.389 5.092a2.074 2.074 0 0 1-2.233-1.865 1.988 1.988 0 0 1 2.18-1.865 2.089 2.089 0 0 1 2.286 1.865 2.038 2.038 0 0 1-2.233 1.866z" transform="translate(-931.878 -520.528)" style="fill:#fff"/>
        <path data-name="패스 4892" d="M929.079 526.289H927.7V521.7h-1.67v8.908h-4.914v-7.252h3.371v-1.4h-3.8a1.237 1.237 0 0 0-1.234 1.24v7.624a1.237 1.237 0 0 0 1.234 1.24h5.346v2.04h1.667v-6.4h1.382v6.4h1.667v-12.4h-1.667z" transform="translate(-859.769 -520.636)" style="fill:#fff"/>
        <path data-name="패스 4893" d="m958.637 525.021.431 1.285a13.1 13.1 0 0 0 5.2-1.993 13.106 13.106 0 0 0 5.2 1.993l.431-1.285c-3.024-.5-4.517-1.367-4.669-2.12h4.109v-1.373h-10.175v1.372h4.142c-.153.754-1.645 1.616-4.669 2.121z" transform="translate(-884.681 -520.528)" style="fill:#fff"/>
    </g>
</svg>
