<svg xmlns="http://www.w3.org/2000/svg" width="208" height="24" viewBox="0 0 208 24">
    <g data-name="그룹 1305">
        <g data-name="그룹 1304">
            <g data-name="그룹 1303">
                <g data-name="그룹 1302">
                    <g data-name="그룹 1301">
                        <path data-name="사각형 329" style="fill:#fff" d="M0 0h3.103v16.994H0z" transform="translate(204.897 3.425)"/>
                    </g>
                </g>
            </g>
        </g>
        <path data-name="패스 4882" d="M1093.079 522.114h-4.312a5.849 5.849 0 0 0-5.835 5.863v11.258h2.985v-5.8h10.012v5.8h2.985v-11.258a5.849 5.849 0 0 0-5.835-5.863zm2.85 8.626h-10.012v-2.848a3.051 3.051 0 0 1 3.044-3.059h3.924a3.051 3.051 0 0 1 3.044 3.059z" transform="translate(-916.341 -518.816)" style="fill:#fff"/>
        <path data-name="패스 4883" d="M1131.592 522.364h-9.906v16.994h2.968v-5.8h6.938a5.6 5.6 0 0 0 0-11.192zm-.262 8.515h-6.675v-5.839h6.675a2.919 2.919 0 0 1 0 5.838z" transform="translate(-935.392 -518.939)" style="fill:#fff"/>
    </g>
    <g data-name="그룹 1306">
        <path data-name="패스 4884" d="M755.62 525.125h7.2a5.091 5.091 0 0 0-.565 2.337v11.9h3.129v-12.027a2.2 2.2 0 0 1 2.2-2.209h4.439v-2.761h-16.4z" transform="translate(-755.62 -518.939)" style="fill:#fff"/>
        <path data-name="패스 4885" d="M845.437 522.114h-4.313a5.849 5.849 0 0 0-5.835 5.863v11.258h2.985v-5.8h10.012v5.8h2.985v-11.258a5.849 5.849 0 0 0-5.834-5.863zm2.85 8.626h-10.013v-2.848a3.051 3.051 0 0 1 3.044-3.059h3.924a3.051 3.051 0 0 1 3.044 3.059z" transform="translate(-794.733 -518.816)" style="fill:#fff"/>
        <path data-name="패스 4886" d="M883.949 522.364h-9.906v16.995h2.968v-5.8h6.938a5.6 5.6 0 0 0 0-11.192zm-.262 8.515h-6.676v-5.839h6.676a2.919 2.919 0 0 1 0 5.838z" transform="translate(-813.759 -518.939)" style="fill:#fff"/>
        <path data-name="패스 4887" d="M805.16 521.865a5.295 5.295 0 0 1-7.632 0 5.33 5.33 0 0 0-5.317 5.342v11.906h3v-12.135a2.315 2.315 0 1 1 4.63 0v12.136h3v-12.136a2.315 2.315 0 1 1 4.63 0v12.136h3v-11.907a5.33 5.33 0 0 0-5.311-5.342z" transform="translate(-773.608 -518.694)" style="fill:#fff"/>
        <path data-name="패스 4888" d="M1004.994 534.905h-2.329v7.071h-2.524v-7.071h-2.329v7.071h-3.966v1.941h18.027v-1.941h-6.879z" transform="translate(-872.547 -525.047)" style="fill:#fff"/>
        <path data-name="패스 4889" d="M1009.466 533.435h2.329V524.5a1.725 1.725 0 0 0-1.725-1.725h-12.712v2.023h12.108z" transform="translate(-874.273 -519.139)" style="fill:#fff"/>
        <path data-name="패스 4890" d="M956.536 538.405h7.785v1.038c-2.439.419-4.2 2.041-4.2 4.067 0 2.318 2.213 4.154 5.328 4.154s5.327-1.836 5.327-4.154c0-2.019-1.615-3.594-4.171-4.063v-1.042h7.764v-1.919h-17.833zm11.943 5.09c0 1.275-1.281 2.265-3.027 2.265s-3.027-.99-3.027-2.265 1.281-2.265 3.027-2.265 3.027.99 3.027 2.265z" transform="translate(-854.256 -525.799)" style="fill:#fff"/>
        <path data-name="패스 4891" d="M1050.717 531.348h-7.775V529.9h6.143v-1.91h-12.113v-1.366h11.769V524.8h-11.769v-1.366h11.941v-1.906h-12.674a1.556 1.556 0 0 0-1.553 1.56v5.249a1.556 1.556 0 0 0 1.553 1.559h4.418v1.452h-7.775v1.91h4.815a3.638 3.638 0 0 0-1.332 2.892c0 2.2 2.458 4.242 5.424 4.242s5.424-2.056 5.424-4.242a3.638 3.638 0 0 0-1.332-2.892h4.836zm-8.928 7.116a2.9 2.9 0 0 1-3.12-2.606 2.778 2.778 0 0 1 3.047-2.606c1.8 0 3.194 1.167 3.194 2.606a2.847 2.847 0 0 1-3.121 2.606z" transform="translate(-891.736 -518.528)" style="fill:#fff"/>
        <path data-name="패스 4892" d="M932.905 528.114h-1.931V521.7h-2.329v12.448h-6.867v-10.137h4.711v-1.95h-5.314a1.729 1.729 0 0 0-1.725 1.733v10.655a1.729 1.729 0 0 0 1.725 1.733h7.47v2.848h2.329v-8.945h1.931v8.945h2.329V521.7h-2.329z" transform="translate(-836.051 -518.612)" style="fill:#fff"/>
        <path data-name="패스 4893" d="m958.637 526.41.6 1.8a18.312 18.312 0 0 0 7.271-2.785 18.316 18.316 0 0 0 7.271 2.785l.6-1.8c-4.225-.706-6.312-1.91-6.524-2.962h5.745v-1.919h-14.227v1.919h5.788c-.213 1.052-2.299 2.252-6.524 2.962z" transform="translate(-855.289 -518.528)" style="fill:#fff"/>
    </g>
</svg>
