<svg xmlns="http://www.w3.org/2000/svg" width="178" height="16" viewBox="0 0 178 16">
    <path data-name="패스 19" d="M0 5.346h5.917a3.992 3.992 0 0 0-.45 1.844v9.369h2.479V7.087a1.743 1.743 0 0 1 1.749-1.741h3.72V3.17H0z" transform="translate(.802 -1.835)" style="fill:#fff"/>
    <path data-name="패스 20" d="M207.075 2.58h-4.026a4.624 4.624 0 0 0-4.629 4.626v8.863h2.367V11.5h8.552v4.572h2.367V7.206a4.624 4.624 0 0 0-4.631-4.626zm2.264 6.795h-8.55V7.133a2.413 2.413 0 0 1 2.411-2.411h3.72a2.413 2.413 0 0 1 2.414 2.411z" transform="translate(-164.071 -1.345)" style="fill:#fff"/>
    <path data-name="패스 21" d="M630.129 7.011a3.847 3.847 0 0 0-3.85-3.841h-9.569v13.389h9.569a3.838 3.838 0 0 0 2.577-6.694 3.829 3.829 0 0 0 1.273-2.854zm-4.142 7.54H619v-3.7h6.989a1.856 1.856 0 1 1 0 3.7zm0-5.673H619v-3.7h6.989a1.856 1.856 0 1 1 0 3.7z" transform="translate(-511.64 -1.835)" style="fill:#fff"/>
    <path data-name="사각형 25" transform="translate(121.71 1.335)" style="fill:#fff" d="M0 0h2.462v13.389H0z"/>
    <path data-name="사각형 26" transform="translate(142.624 1.335)" style="fill:#fff" d="M0 0h2.462v13.389H0z"/>
    <path data-name="패스 22" d="M751.661 13.757V3.18h-2.511v10.577a2.814 2.814 0 0 0 2.817 2.81h9.669v-2.242h-9.4a.569.569 0 0 1-.575-.568z" transform="translate(-621.688 -1.843)" style="fill:#fff"/>
    <path data-name="패스 23" d="M870.46 5.346h5.478v11.215h2.462V5.346h5.476V3.17H870.46z" transform="translate(-722.488 -1.835)" style="fill:#fff"/>
    <path data-name="패스 24" d="M975.341 3.17v6.763h-8.185a.569.569 0 0 1-.571-.568V3.172h-2.465v6.192a2.815 2.815 0 0 0 2.818 2.812h8.4v4.386h2.4V3.17z" transform="translate(-800.313 -1.835)" style="fill:#fff"/>
    <path data-name="패스 25" d="M305.115 3.166h-8.665v13.389h2.355v-4.572h6.31a4.409 4.409 0 1 0 0-8.818zm-.208 6.709h-6.1v-4.6h6.1a2.3 2.3 0 1 1 0 4.6z" transform="translate(-245.527 -1.831)" style="fill:#fff"/>
    <path data-name="패스 26" d="M101.947 2a4.338 4.338 0 0 0-3.162 1.361A4.353 4.353 0 0 0 91.27 6.34v9.246h2.382V6.16a1.971 1.971 0 1 1 3.941 0v9.426h2.382V6.16a1.971 1.971 0 0 1 3.943 0v9.426h2.382V6.34A4.347 4.347 0 0 0 101.947 2z" transform="translate(-75.037 -.862)" style="fill:#fff"/>
    <path data-name="패스 27" d="M424.222 1.989a4.338 4.338 0 0 0-3.157 1.358 4.353 4.353 0 0 0-7.515 2.982v9.246h2.382V6.149a1.971 1.971 0 0 1 3.943 0v9.426h2.374V6.149a1.971 1.971 0 0 1 3.943 0v9.426h2.382V6.329a4.349 4.349 0 0 0-4.352-4.34z" transform="translate(-342.829 -.851)" style="fill:#fff"/>
    <path data-name="패스 28" d="M523.531 0a7.23 7.23 0 1 0 7.241 7.228A7.238 7.238 0 0 0 523.531 0zm0 12.25a4.829 4.829 0 0 1-4.831-5.02 4.835 4.835 0 1 1 9.662 0 4.829 4.829 0 0 1-4.831 5.02z" transform="translate(-428.19 .8)" style="fill:#fff"/>
</svg>
